<?xml version="1.0" encoding="UTF-8" standalone="no"?>
<svg xmlns="http://www.w3.org/2000/svg" width="800" height="1130" version="1.0">
  <g font-family="Arial, Helvetica, sans-serif">
    <text x="400" y="28" font-weight="500" font-size="24px" text-anchor="middle">
      Decision Model and Notation Toolkit components
    </text>

    <g font-size="16px" transform="translate(0 55)">

      <g transform="translate(40 0)">
        <g stroke="#000000">
          <rect x="0" y="0" width="220" height="65" stroke-width="2" fill="none"/>
          <line x1="0" y1="30" x2="220" y2="30" stroke-width="1"/>
          <line x1="140" y1="0" x2="140" y2="30" stroke-width="1"/>
        </g>
        <text x="70" y="20" text-anchor="middle">examples</text>
        <text x="180" y="20" text-anchor="middle">0.0.20</text>
        <text x="110" y="52" text-anchor="middle">dsntk_examples</text>
      </g>

      <g transform="translate(290 0)">
        <g stroke="#000000">
          <rect x="0" y="0" width="220" height="65" stroke-width="2" fill="none"/>
          <line x1="0" y1="30" x2="220" y2="30" stroke-width="1"/>
          <line x1="140" y1="0" x2="140" y2="30" stroke-width="1"/>
        </g>
        <text x="70" y="20" text-anchor="middle">common</text>
        <text x="180" y="20" text-anchor="middle">0.0.20</text>
        <text x="110" y="52" text-anchor="middle">dsntk_common</text>
      </g>

      <g transform="translate(540 0)">
        <g stroke="#000000">
          <rect x="0" y="0" width="220" height="65" stroke-width="2" fill="none"/>
          <line x1="0" y1="30" x2="220" y2="30" stroke-width="1"/>
          <line x1="140" y1="0" x2="140" y2="30" stroke-width="1"/>
        </g>
        <text x="70" y="20" text-anchor="middle">feel-grammar</text>
        <text x="180" y="20" text-anchor="middle">0.0.20</text>
        <text x="110" y="52" text-anchor="middle">dsntk_feel_grammar</text>
      </g>

      <g transform="translate(290 120)">
        <g stroke="#000000">
          <rect x="0" y="0" width="220" height="65" stroke-width="2" fill="none"/>
          <line x1="0" y1="30" x2="220" y2="30" stroke-width="1"/>
          <line x1="140" y1="0" x2="140" y2="30" stroke-width="1"/>
        </g>
        <text x="70" y="20" text-anchor="middle">feel</text>
        <text x="180" y="20" text-anchor="middle">0.0.20</text>
        <text x="110" y="52" text-anchor="middle">dsntk_feel</text>
      </g>

      <g transform="translate(470 240)">
        <g stroke="#000000">
          <rect x="0" y="0" width="220" height="65" stroke-width="2" fill="none"/>
          <line x1="0" y1="30" x2="220" y2="30" stroke-width="1"/>
          <line x1="140" y1="0" x2="140" y2="30" stroke-width="1"/>
        </g>
        <text x="70" y="20" text-anchor="middle">feel-parser</text>
        <text x="180" y="20" text-anchor="middle">0.0.20</text>
        <text x="110" y="52" text-anchor="middle">dsntk_feel_parser</text>
      </g>

      <g transform="translate(200 360)">
        <g stroke="#000000">
          <rect x="0" y="0" width="220" height="65" stroke-width="2" fill="none"/>
          <line x1="0" y1="30" x2="220" y2="30" stroke-width="1"/>
          <line x1="140" y1="0" x2="140" y2="30" stroke-width="1"/>
        </g>
        <text x="70" y="20" text-anchor="middle">model</text>
        <text x="180" y="20" text-anchor="middle">0.0.20</text>
        <text x="110" y="52" text-anchor="middle">dsntk_model</text>
      </g>

      <g transform="translate(200 480)">
        <g stroke="#000000">
          <rect x="0" y="0" width="220" height="65" stroke-width="2" fill="none"/>
          <line x1="0" y1="30" x2="220" y2="30" stroke-width="1"/>
          <line x1="140" y1="0" x2="140" y2="30" stroke-width="1"/>
        </g>
        <text x="70" y="20" text-anchor="middle">recognizer</text>
        <text x="180" y="20" text-anchor="middle">0.0.20</text>
        <text x="110" y="52" text-anchor="middle">dsntk_recognizer</text>
      </g>

      <g transform="translate(200 600)">
        <g stroke="#000000">
          <rect x="0" y="0" width="220" height="65" stroke-width="2" fill="none"/>
          <line x1="0" y1="30" x2="220" y2="30" stroke-width="1"/>
          <line x1="140" y1="0" x2="140" y2="30" stroke-width="1"/>
        </g>
        <text x="70" y="20" text-anchor="middle">evaluator</text>
        <text x="180" y="20" text-anchor="middle">0.0.20</text>
        <text x="110" y="52" text-anchor="middle">dsntk_evaluator</text>
      </g>

      <g transform="translate(200 720)">
        <g stroke="#000000">
          <rect x="0" y="0" width="220" height="65" stroke-width="2" fill="none"/>
          <line x1="0" y1="30" x2="220" y2="30" stroke-width="1"/>
          <line x1="140" y1="0" x2="140" y2="30" stroke-width="1"/>
        </g>
        <text x="70" y="20" text-anchor="middle">workspace</text>
        <text x="180" y="20" text-anchor="middle">0.0.20</text>
        <text x="110" y="52" text-anchor="middle">dsntk_workspace</text>
      </g>

      <g transform="translate(200 840)">
        <g stroke="#000000">
          <rect x="0" y="0" width="220" height="65" stroke-width="2" fill="none"/>
          <line x1="0" y1="30" x2="220" y2="30" stroke-width="1"/>
          <line x1="140" y1="0" x2="140" y2="30" stroke-width="1"/>
        </g>
        <text x="70" y="20" text-anchor="middle">server</text>
        <text x="180" y="20" text-anchor="middle">0.0.20</text>
        <text x="110" y="52" text-anchor="middle">dsntk_server</text>
      </g>

      <g transform="translate(200 960)">
        <g stroke="#000000">
          <rect x="0" y="0" width="220" height="65" stroke-width="2" fill="none"/>
          <line x1="0" y1="30" x2="220" y2="30" stroke-width="1"/>
          <line x1="140" y1="0" x2="140" y2="30" stroke-width="1"/>
        </g>
        <text x="70" y="20" text-anchor="middle">dsntk</text>
        <text x="180" y="20" text-anchor="middle">0.0.20</text>
        <text x="110" y="52" text-anchor="middle">dsntk</text>
      </g>

      <!-- lines -->
      <g stroke="#000000" fill="none" stroke-width="1">
        <path d="M 400 120 l 0 -55"/>
        <path d="M 650 240 l 0 -175"/>
        <path d="M 510 240 l 0 -25 l -110 0 l 0 -30"/>
        <path d="M 240 360 l 0 -25 l -90 0 l 0 -270"/>
        <path d="M 380 360 l 0 -25 l 200 0 l 0 -30"/>
        <path d="M 310 480 l 0 -55"/>
        <path d="M 310 600 l 0 -55"/>
        <path d="M 310 720 l 0 -55"/>
        <path d="M 310 840 l 0 -55"/>
        <path d="M 310 960 l 0 -55"/>
      </g>

      <!-- endings -->
      <g stroke="none" fill="#000000">
        <path d="M 400 65 l 4 12 l -8 0"/>
        <path d="M 150 65 l 4 12 l -8 0"/>
        <path d="M 650 65 l 4 12 l -8 0"/>
        <path d="M 400 185 l 4 12 l -8 0"/>
        <path d="M 580 305 l 4 12 l -8 0"/>
        <path d="M 310 425 l 4 12 l -8 0"/>
        <path d="M 310 545 l 4 12 l -8 0"/>
        <path d="M 310 665 l 4 12 l -8 0"/>
        <path d="M 310 785 l 4 12 l -8 0"/>
        <path d="M 310 905 l 4 12 l -8 0"/>
      </g>

    </g>
  </g>
</svg>
